<?xml version="1.0" encoding="UTF-8" standalone="no"?>
<!-- Created with Inkscape (http://www.inkscape.org/) -->

<svg
   xmlns:dc="http://purl.org/dc/elements/1.1/"
   xmlns:cc="http://creativecommons.org/ns#"
   xmlns:rdf="http://www.w3.org/1999/02/22-rdf-syntax-ns#"
   xmlns:svg="http://www.w3.org/2000/svg"
   xmlns="http://www.w3.org/2000/svg"
   xmlns:sodipodi="http://sodipodi.sourceforge.net/DTD/sodipodi-0.dtd"
   xmlns:inkscape="http://www.inkscape.org/namespaces/inkscape"
   width="800"
   height="450"
   id="svg4674"
   version="1.1"
   inkscape:version="0.48.2 r9819"
   sodipodi:docname="fox_run_2.svg"
   inkscape:export-filename="/Users/jamiely/Documents/code/BunnyMatcher/BunnyMatcher/Assets/inkscape/fox_run_2.png"
   inkscape:export-xdpi="90"
   inkscape:export-ydpi="90">
  <defs
     id="defs4676" />
  <sodipodi:namedview
     id="base"
     pagecolor="#ffffff"
     bordercolor="#666666"
     borderopacity="1.0"
     inkscape:pageopacity="0.0"
     inkscape:pageshadow="2"
     inkscape:zoom="0.75562114"
     inkscape:cx="540.88332"
     inkscape:cy="415.90418"
     inkscape:document-units="px"
     inkscape:current-layer="layer1"
     showgrid="false"
     inkscape:window-width="1440"
     inkscape:window-height="852"
     inkscape:window-x="0"
     inkscape:window-y="0"
     inkscape:window-maximized="1" />
  <metadata
     id="metadata4679">
    <rdf:RDF>
      <cc:Work
         rdf:about="">
        <dc:format>image/svg+xml</dc:format>
        <dc:type
           rdf:resource="http://purl.org/dc/dcmitype/StillImage" />
        <dc:title></dc:title>
      </cc:Work>
    </rdf:RDF>
  </metadata>
  <g
     inkscape:label="Layer 1"
     inkscape:groupmode="layer"
     id="layer1"
     transform="translate(0,-602.36218)">
    <path
       sodipodi:type="arc"
       style="fill:#ff6600;stroke:none"
       id="path4694"
       sodipodi:cx="327.5451"
       sodipodi:cy="381.13931"
       sodipodi:rx="85.360237"
       sodipodi:ry="107.85828"
       d="m 412.90534,381.13931 a 85.360237,107.85828 0 1 1 -170.72047,0 85.360237,107.85828 0 1 1 170.72047,0 z"
       transform="matrix(0.64124516,-0.50945205,0.48017994,0.82896763,-201.81876,649.18297)" />
    <g
       id="g5221"
       transform="matrix(0.99150465,-0.13007125,0.13007125,0.99150465,-180.9407,165.9643)">
      <path
         sodipodi:type="arc"
         style="fill:#ff6600;stroke:none"
         id="path4931"
         sodipodi:cx="631.26874"
         sodipodi:cy="475.76343"
         sodipodi:rx="43.67268"
         sodipodi:ry="74.111214"
         d="m 674.94142,475.76343 c 0,40.93049 -19.55293,74.11121 -43.67268,74.11121 -24.11976,0 -43.67268,-33.18072 -43.67268,-74.11121 0,-40.9305 19.55292,-74.11122 43.67268,-74.11122 24.11975,0 43.67268,33.18072 43.67268,74.11122 z"
         transform="matrix(0.81986705,-0.64731152,0.54240507,0.8007113,-258.42817,802.24541)" />
      <path
         sodipodi:type="arc"
         style="fill:#ff6600;stroke:none"
         id="path4933"
         sodipodi:cx="607.44727"
         sodipodi:cy="543.91931"
         sodipodi:rx="39.702435"
         sodipodi:ry="56.245117"
         d="m 647.1497,543.91931 c 0,31.06332 -17.77539,56.24512 -39.70243,56.24512 -21.92705,0 -39.70244,-25.1818 -39.70244,-56.24512 0,-31.06332 17.77539,-56.24512 39.70244,-56.24512 21.92704,0 39.70243,25.1818 39.70243,56.24512 z"
         transform="matrix(0.18449862,-0.85232518,0.92233578,0.17049411,-57.668766,1233.6011)" />
      <path
         sodipodi:type="arc"
         style="fill:#ff6600;stroke:none"
         id="path4935"
         sodipodi:cx="633.91559"
         sodipodi:cy="586.93024"
         sodipodi:rx="17.20439"
         sodipodi:ry="44.996094"
         d="m 651.11998,586.93024 c 0,24.85065 -7.70267,44.99609 -17.20439,44.99609 -9.50172,0 -17.20439,-20.14544 -17.20439,-44.99609 0,-24.85066 7.70267,-44.9961 17.20439,-44.9961 9.50172,0 17.20439,20.14544 17.20439,44.9961 z"
         transform="matrix(0.82762158,-1.0111483,1.0005398,0.44652296,-512.1253,1205.7797)" />
      <path
         sodipodi:type="arc"
         style="fill:#ff6600;stroke:none"
         id="path4937"
         sodipodi:cx="648.47314"
         sodipodi:cy="646.48389"
         sodipodi:rx="18.527803"
         sodipodi:ry="47.642921"
         d="m 667.00095,646.48389 c 0,26.31246 -8.29518,47.64292 -18.52781,47.64292 -10.23262,0 -18.5278,-21.33046 -18.5278,-47.64292 0,-26.31246 8.29518,-47.64292 18.5278,-47.64292 10.23263,0 18.52781,21.33046 18.52781,47.64292 z"
         transform="matrix(0.3390405,-0.94077178,0.94077178,0.3390405,-172.71659,1240.8397)" />
      <path
         sodipodi:type="arc"
         style="fill:#000000;stroke:none"
         id="path4939"
         sodipodi:cx="631.26874"
         sodipodi:cy="661.70319"
         sodipodi:rx="17.20439"
         sodipodi:ry="7.27878"
         d="m 648.47313,661.70319 c 0,4.01996 -7.70267,7.27878 -17.20439,7.27878 -9.50172,0 -17.20439,-3.25882 -17.20439,-7.27878 0,-4.01996 7.70267,-7.27878 17.20439,-7.27878 9.50172,0 17.20439,3.25882 17.20439,7.27878 z"
         transform="matrix(-0.02490589,-1.0766351,1.0906173,-0.02522935,-11.62068,1565.6626)" />
    </g>
    <path
       inkscape:connector-curvature="0"
       style="fill:#ff6600;stroke:none"
       d="m 421.7037,738.51119 c -3.51494,0.0239 -7.04908,0.10459 -10.625,0.28125 -18.28811,0.90347 -35.64115,3.78464 -51.4375,8.1875 -22.63672,-2.4723 -48.22938,-1.425 -74.78125,3.78125 -79.25545,15.54028 -136.85221,62.13499 -128.625,104.09375 8.22721,41.95876 79.1508,63.38403 158.40625,47.84375 16.48176,-3.23172 32.00866,-7.80833 46.21875,-13.40625 17.73436,3.63125 37.31639,5.17035 57.84375,4.15625 76.28619,-3.7687 136.42225,-41.41934 134.3125,-84.125 -2.01086,-40.70384 -59.84207,-71.29798 -131.3125,-70.8125 z"
       id="path4696" />
    <path
       inkscape:connector-curvature="0"
       style="fill:#b3b3b3;stroke:none"
       d="m 551.92245,801.54244 c -8.58671,37.44499 -64.31552,68.50228 -133.21875,71.90625 -20.52736,1.0141 -40.10939,-0.525 -57.84375,-4.15625 -14.21009,5.59792 -29.73699,10.17453 -46.21875,13.40625 -78.1354,15.32066 -148.15274,-5.30335 -158,-46.09375 -1.40156,6.1093 -1.58739,12.2262 -0.40625,18.25 8.22721,41.95876 79.1508,63.38403 158.40625,47.84375 16.48176,-3.23172 32.00866,-7.80833 46.21875,-13.40625 17.73436,3.63125 37.31639,5.17035 57.84375,4.15625 76.28619,-3.7687 136.42225,-41.41934 134.3125,-84.125 -0.13046,-2.64068 -0.50494,-5.2314 -1.09375,-7.78125 z"
       id="path4780" />
    <path
       sodipodi:type="arc"
       style="fill:#ff6600;stroke:none"
       id="path4709"
       sodipodi:cx="725.23114"
       sodipodi:cy="411.57785"
       sodipodi:rx="75.434631"
       sodipodi:ry="45.657803"
       d="m 800.66577,411.57785 a 75.434631,45.657803 0 1 1 -150.86926,0 75.434631,45.657803 0 1 1 150.86926,0 z"
       transform="matrix(0.99773822,-0.06721926,0.06721926,0.99773822,-180.86515,421.14988)" />
    <g
       id="g5139"
       transform="matrix(0.96013687,-0.2795303,0.2795303,0.96013687,-264.52966,341.16636)">
      <path
         id="path4747"
         d="m 845.40625,626.42468 c -10.97239,-3.38871 -23.39816,-5.5 -36.8125,-5.5 -42.3923,0 -76.75,19.2457 -76.75,43 0,23.7543 34.3577,43.03125 76.75,43.03125 13.92088,0 26.8054,-2.24455 38.0625,-5.875 -2.30045,-1.53435 -4.51515,-3.18494 -6.5,-5.0625 -2.21529,-2.09555 -4.20883,-4.37954 -5.96875,-6.84375 -1.75992,-2.46421 -3.29233,-5.10421 -4.53125,-7.875 -1.23892,-2.77079 -2.19147,-5.67221 -2.84375,-8.6875 -0.32614,-1.50764 -0.58283,-3.03662 -0.75,-4.59375 -0.16717,-1.55713 -0.25,-3.15115 -0.25,-4.75 0,-1.59885 0.0828,-3.16162 0.25,-4.71875 0.16717,-1.55713 0.42386,-3.08611 0.75,-4.59375 0.65228,-3.01529 1.60483,-5.94796 2.84375,-8.71875 1.23892,-2.77079 2.77133,-5.37954 4.53125,-7.84375 1.75992,-2.46421 3.75346,-4.77945 5.96875,-6.875 1.60386,-1.51716 3.43711,-2.79788 5.25,-4.09375 z"
         style="fill:#ff6600;stroke:none"
         inkscape:connector-curvature="0" />
      <path
         id="path4711"
         d="m 845.40625,626.42468 c -1.81289,1.29587 -3.64614,2.57659 -5.25,4.09375 -2.21529,2.09555 -4.20883,4.41079 -5.96875,6.875 -1.75992,2.46421 -3.29233,5.07296 -4.53125,7.84375 -1.23892,2.77079 -2.19147,5.70346 -2.84375,8.71875 -0.32614,1.50764 -0.58283,3.03662 -0.75,4.59375 -0.16717,1.55713 -0.25,3.1199 -0.25,4.71875 0,1.59885 0.0828,3.19287 0.25,4.75 0.16717,1.55713 0.42386,3.08611 0.75,4.59375 0.65228,3.01529 1.60483,5.91671 2.84375,8.6875 1.23892,2.77079 2.77133,5.41079 4.53125,7.875 1.75992,2.46421 3.75346,4.7482 5.96875,6.84375 1.98485,1.87756 4.19955,3.52815 6.5,5.0625 23.02336,-7.42511 38.71875,-21.20244 38.71875,-37.15625 0,-16.23765 -16.26593,-30.17963 -39.96875,-37.5 z"
         style="fill:#b3b3b3;stroke:none"
         inkscape:connector-curvature="0" />
    </g>
    <path
       style="fill:#b3b3b3;stroke:none"
       d="m 156.85995,700.22994 c -6.21566,1.54934 -12.07607,4.39031 -17.40625,8.625 -30.23032,24.01718 -31.57234,83.52591 -2.96875,132.90625 28.60359,49.38034 76.30093,69.92343 106.53125,45.90625 1.29039,-1.02518 2.53379,-2.09906 3.71875,-3.25 -29.03162,7.21477 -65.51076,-13.90351 -89.0625,-54.5625 -27.37174,-47.25371 -27.35613,-103.79845 -0.8125,-129.625 z"
       id="path4794"
       inkscape:connector-curvature="0" />
    <g
       id="g5408"
       transform="matrix(0.97813469,0.20797243,-0.20797243,0.97813469,10.238418,106.42465)">
      <path
         id="path4704"
         transform="translate(0,252.36218)"
         d="m 271.3125,272.0625 c -14.61232,0 -27.38834,6.69485 -34.28125,16.6875 -5.05929,1.04303 -9.94888,2.32186 -14.65625,3.8125 1.68301,4.82189 2.59375,9.88107 2.59375,15.125 0,27.90058 -25.44906,51.10904 -59.03125,55.96875 10.50254,25.63854 50.84437,40.89944 96.25,34.84375 50.35183,-6.71536 87.85651,-37.11556 83.75,-67.90625 C 343.65068,313.44716 328.9378,299.82 307.65625,292.25 301.51668,280.35717 287.57087,272.0625 271.3125,272.0625 z"
         style="fill:#ff6600;stroke:none"
         inkscape:connector-curvature="0" />
      <g
         id="g4806">
        <path
           style="fill:#ff6600;stroke:none"
           d="m 222.98047,549.46466 -11.91073,-62.20048 c 0,0 43.67268,26.46829 48.96634,54.25999 5.29366,27.79171 -37.05561,7.94049 -37.05561,7.94049 z"
           id="path4717"
           inkscape:connector-curvature="0" />
        <path
           style="fill:#d45500;stroke:none"
           d="m 211.0625,234.90625 3.65625,19.15625 c 8.48287,1.60654 17.84439,10.70716 23.3125,23.6875 3.85919,9.16105 4.98007,18.34815 3.625,25.5 10.57713,2 21.18457,0.65651 18.375,-14.09375 -5.29366,-27.7917 -48.96875,-54.25 -48.96875,-54.25 z"
           transform="translate(0,252.36218)"
           id="path4803"
           inkscape:connector-curvature="0" />
      </g>
      <path
         transform="translate(0,252.36218)"
         d="m 244.83169,340.11346 c 0,4.75087 -3.85134,8.6022 -8.6022,8.6022 -4.75086,0 -8.60219,-3.85133 -8.60219,-8.6022 0,-4.75086 3.85133,-8.60219 8.60219,-8.60219 4.75086,0 8.6022,3.85133 8.6022,8.60219 z"
         sodipodi:ry="8.6021948"
         sodipodi:rx="8.6021948"
         sodipodi:cy="340.11346"
         sodipodi:cx="236.22949"
         id="path4844"
         style="fill:#000000;stroke:none"
         sodipodi:type="arc" />
      <path
         id="path4848"
         transform="translate(0,252.36218)"
         d="m 220.34375,355.34375 c -18.95109,0 -35.18668,10.21498 -42.09375,24.75 17.76703,15.26876 49.37437,23.01589 83.9375,18.40625 1.2594,-0.16796 2.50713,-0.36527 3.75,-0.5625 0.0457,-0.73983 0.0625,-1.50009 0.0625,-2.25 0,-22.2925 -20.44014,-40.34375 -45.65625,-40.34375 z"
         style="fill:#b3b3b3;stroke:none"
         inkscape:connector-curvature="0" />
      <path
         transform="translate(0,252.36218)"
         d="m 189.24827,365.92004 c 0,7.30902 -5.92512,13.23415 -13.23414,13.23415 -7.30902,0 -13.23415,-5.92513 -13.23415,-13.23415 0,-7.30901 5.92513,-13.23414 13.23415,-13.23414 7.30902,0 13.23414,5.92513 13.23414,13.23414 z"
         sodipodi:ry="13.234145"
         sodipodi:rx="13.234145"
         sodipodi:cy="365.92004"
         sodipodi:cx="176.01413"
         id="path4842"
         style="fill:#000000;stroke:none"
         sodipodi:type="arc" />
    </g>
    <path
       sodipodi:type="arc"
       style="fill:#ff6600;stroke:none"
       id="path4872"
       sodipodi:cx="389.08386"
       sodipodi:cy="569.72589"
       sodipodi:rx="26.46829"
       sodipodi:ry="47.642921"
       d="m 415.55215,569.72589 a 26.46829,47.642921 0 1 1 -52.93658,0 26.46829,47.642921 0 1 1 52.93658,0 z"
       transform="matrix(0.48270203,0.9510413,-1.3000562,0.43727816,732.78164,283.34997)" />
    <g
       id="g5181"
       transform="matrix(0.9446205,-0.32816475,0.32816475,0.9446205,-367.29725,266.52031)">
      <path
         transform="matrix(0.39420514,0.77770259,-1.3272222,0.34954206,851.71866,263.49292)"
         d="m 428.7863,585.60687 c 0,24.11976 -10.66523,43.67268 -23.82146,43.67268 -13.15623,0 -23.82146,-19.55292 -23.82146,-43.67268 0,-24.11975 10.66523,-43.67268 23.82146,-43.67268 13.15623,0 23.82146,19.55293 23.82146,43.67268 z"
         sodipodi:ry="43.67268"
         sodipodi:rx="23.821461"
         sodipodi:cy="585.60687"
         sodipodi:cx="404.96484"
         id="path4874"
         style="fill:#ff6600;stroke:none"
         sodipodi:type="arc" />
      <path
         transform="matrix(0.25245211,0.70981256,-0.96430104,0.2446907,695.30176,347.2563)"
         d="m 428.78629,637.22003 c 0,5.11631 -11.25774,9.2639 -25.14487,9.2639 -13.88713,0 -25.14488,-4.14759 -25.14488,-9.2639 0,-5.11631 11.25775,-9.2639 25.14488,-9.2639 13.88713,0 25.14487,4.14759 25.14487,9.2639 z"
         sodipodi:ry="9.2639017"
         sodipodi:rx="25.144876"
         sodipodi:cy="637.22003"
         sodipodi:cx="403.64142"
         id="path4876"
         style="fill:#280b0b;stroke:none"
         sodipodi:type="arc" />
    </g>
    <g
       id="g5157"
       transform="matrix(0.52995146,0.84802798,-0.84802798,0.52995146,661.209,227.14191)">
      <path
         transform="matrix(0.96979983,0.04709291,0.04886469,1.3156404,-6.4723723,71.634499)"
         d="m 363.939,518.11273 c 0,20.46525 -13.03528,37.05561 -29.11512,37.05561 -16.07983,0 -29.11512,-16.59036 -29.11512,-37.05561 0,-20.46524 13.03529,-37.0556 29.11512,-37.0556 16.07984,0 29.11512,16.59036 29.11512,37.0556 z"
         sodipodi:ry="37.055607"
         sodipodi:rx="29.11512"
         sodipodi:cy="518.11273"
         sodipodi:cx="334.82388"
         id="path4892"
         style="fill:#ff6600;stroke:none"
         sodipodi:type="arc" />
      <path
         transform="matrix(0.96979983,0.04709291,0.04886469,1.3156404,-6.4723723,71.634499)"
         d="m 357.32192,558.47687 c 0,18.63799 -9.18395,33.74707 -20.51293,33.74707 -11.32898,0 -20.51293,-15.10908 -20.51293,-33.74707 0,-18.63799 9.18395,-33.74707 20.51293,-33.74707 11.32898,0 20.51293,15.10908 20.51293,33.74707 z"
         sodipodi:ry="33.74707"
         sodipodi:rx="20.512926"
         sodipodi:cy="558.47687"
         sodipodi:cx="336.80899"
         id="path4894"
         style="fill:#ff6600;stroke:none"
         sodipodi:type="arc" />
    </g>
    <g
       id="g5161"
       transform="matrix(0.79165043,0.6109743,-0.6109743,0.79165043,364.47092,84.850399)">
      <path
         transform="matrix(0.96979983,0.04709291,0.04886469,1.3156404,-6.4723723,71.634499)"
         d="m 355.99852,600.16443 c 0,13.15623 -7.40641,23.82146 -16.54268,23.82146 -9.13627,0 -16.54268,-10.66523 -16.54268,-23.82146 0,-13.15623 7.40641,-23.82146 16.54268,-23.82146 9.13627,0 16.54268,10.66523 16.54268,23.82146 z"
         sodipodi:ry="23.821461"
         sodipodi:rx="16.542681"
         sodipodi:cy="600.16443"
         sodipodi:cx="339.45584"
         id="path4896"
         style="fill:#ff6600;stroke:none"
         sodipodi:type="arc" />
      <path
         transform="matrix(0.69713611,0.03180752,0.03512616,0.88861056,97.328947,338.00122)"
         d="m 349.38144,621.33905 c 0,5.11631 -9.77646,9.2639 -21.83634,9.2639 -12.05987,0 -21.83633,-4.14759 -21.83633,-9.2639 0,-5.11631 9.77646,-9.2639 21.83633,-9.2639 12.05988,0 21.83634,4.14759 21.83634,9.2639 z"
         sodipodi:ry="9.2639017"
         sodipodi:rx="21.83634"
         sodipodi:cy="621.33905"
         sodipodi:cx="327.5451"
         id="path4898"
         style="fill:#280b0b;stroke:none"
         sodipodi:type="arc" />
    </g>
    <g
       id="g5153"
       transform="matrix(0.4916654,-0.8707842,0.8707842,0.4916654,-567.52815,804.60346)">
      <path
         inkscape:connector-curvature="0"
         id="path4867"
         d="m 312.80624,637.29018 c -4.53716,4.58177 -8.90844,9.60379 -12.9789,15.05455 -30.62812,41.01411 -34.09796,90.19285 -7.74477,109.87261 26.3532,19.67979 72.54574,2.4051 103.17386,-38.60903 4.07047,-5.45075 7.64441,-11.0682 10.74912,-16.71966 l -93.19931,-69.59847 z"
         style="fill:#ff6600;stroke:none" />
      <path
         id="path4883"
         d="m 330.45892,650.46786 -17.64131,-13.17031 c -4.53716,4.58177 -8.92781,9.58615 -12.99827,15.03691 -8.11223,10.86309 -14.29336,22.31393 -18.54566,33.62274 8.81176,-1.19831 18.59893,-5.02367 27.75457,-11.36834 9.99245,-6.92455 17.39164,-15.5847 21.43067,-24.121 z"
         style="fill:#b3b3b3;stroke:none"
         inkscape:connector-curvature="0" />
    </g>
    <path
       sodipodi:type="arc"
       style="fill:#ff6600;stroke:none"
       id="path4913"
       sodipodi:cx="631.26874"
       sodipodi:cy="475.76343"
       sodipodi:rx="43.67268"
       sodipodi:ry="74.111214"
       d="m 674.94142,475.76343 a 43.67268,74.111214 0 1 1 -87.34536,0 43.67268,74.111214 0 1 1 87.34536,0 z"
       transform="matrix(0.64761537,-0.93359797,0.82784539,0.63579851,-262.13418,1163.5531)" />
    <path
       sodipodi:type="arc"
       style="fill:#ff6600;stroke:none"
       id="path4915"
       sodipodi:cx="607.44727"
       sodipodi:cy="543.91931"
       sodipodi:rx="39.702435"
       sodipodi:ry="56.245117"
       d="m 647.1497,543.91931 a 39.702435,56.245117 0 1 1 -79.40487,0 39.702435,56.245117 0 1 1 79.40487,0 z"
       transform="matrix(-0.11081254,-0.99384132,0.99384132,-0.11081254,116.76978,1561.3101)" />
    <path
       sodipodi:type="arc"
       style="fill:#ff6600;stroke:none"
       id="path4917"
       sodipodi:cx="633.91559"
       sodipodi:cy="586.93024"
       sodipodi:rx="17.20439"
       sodipodi:ry="44.996094"
       d="m 651.11998,586.93024 a 17.20439,44.996094 0 1 1 -34.40878,0 17.20439,44.996094 0 1 1 34.40878,0 z"
       transform="matrix(0.55453893,-1.183159,1.0794649,0.18766531,-336.72785,1535.0245)" />
    <path
       sodipodi:type="arc"
       style="fill:#ff6600;stroke:none"
       id="path4919"
       sodipodi:cx="648.47314"
       sodipodi:cy="646.48389"
       sodipodi:rx="18.527803"
       sodipodi:ry="47.642921"
       d="m 667.00095,646.48389 a 18.527803,47.642921 0 1 1 -37.05561,0 18.527803,47.642921 0 1 1 37.05561,0 z"
       transform="matrix(0.67392013,-0.7388042,0.7388042,0.67392013,-203.55852,962.96443)" />
    <path
       sodipodi:type="arc"
       style="fill:#000000;stroke:none"
       id="path4921"
       sodipodi:cx="631.26874"
       sodipodi:cy="661.70319"
       sodipodi:rx="17.20439"
       sodipodi:ry="7.27878"
       d="m 648.47313,661.70319 a 17.20439,7.27878 0 1 1 -34.40878,0 17.20439,7.27878 0 1 1 34.40878,0 z"
       transform="matrix(0.43168631,-1.1114156,1.2711205,0.49371749,-372.80929,1329.4249)" />
  </g>
</svg>
