<?xml version="1.0" encoding="UTF-8" standalone="no"?>
<!-- Created with Inkscape (http://www.inkscape.org/) -->

<svg
   xmlns:dc="http://purl.org/dc/elements/1.1/"
   xmlns:cc="http://creativecommons.org/ns#"
   xmlns:rdf="http://www.w3.org/1999/02/22-rdf-syntax-ns#"
   xmlns:svg="http://www.w3.org/2000/svg"
   xmlns="http://www.w3.org/2000/svg"
   xmlns:sodipodi="http://sodipodi.sourceforge.net/DTD/sodipodi-0.dtd"
   xmlns:inkscape="http://www.inkscape.org/namespaces/inkscape"
   width="800"
   height="450"
   id="svg4674"
   version="1.1"
   inkscape:version="0.48.2 r9819"
   sodipodi:docname="fox_run_1.svg">
  <defs
     id="defs4676" />
  <sodipodi:namedview
     id="base"
     pagecolor="#ffffff"
     bordercolor="#666666"
     borderopacity="1.0"
     inkscape:pageopacity="0.0"
     inkscape:pageshadow="2"
     inkscape:zoom="0.75562114"
     inkscape:cx="540.88332"
     inkscape:cy="310.03102"
     inkscape:document-units="px"
     inkscape:current-layer="layer1"
     showgrid="false"
     inkscape:window-width="1440"
     inkscape:window-height="852"
     inkscape:window-x="0"
     inkscape:window-y="0"
     inkscape:window-maximized="1" />
  <metadata
     id="metadata4679">
    <rdf:RDF>
      <cc:Work
         rdf:about="">
        <dc:format>image/svg+xml</dc:format>
        <dc:type
           rdf:resource="http://purl.org/dc/dcmitype/StillImage" />
        <dc:title />
      </cc:Work>
    </rdf:RDF>
  </metadata>
  <g
     inkscape:label="Layer 1"
     inkscape:groupmode="layer"
     id="layer1"
     transform="translate(0,-602.36218)">
    <path
       sodipodi:type="arc"
       style="fill:#ff6600;stroke:none"
       id="path4694"
       sodipodi:cx="327.5451"
       sodipodi:cy="381.13931"
       sodipodi:rx="85.360237"
       sodipodi:ry="107.85828"
       d="m 412.90534,381.13931 a 85.360237,107.85828 0 1 1 -170.72047,0 85.360237,107.85828 0 1 1 170.72047,0 z"
       transform="matrix(0.64124516,-0.50945205,0.48017994,0.82896763,-180.64413,606.83371)" />
    <path
       transform="matrix(0.62189661,0.95092348,-0.90024124,0.52833082,531.57411,-51.311372)"
       d="m 674.94142,475.76343 a 43.67268,74.111214 0 1 1 -87.34536,0 43.67268,74.111214 0 1 1 87.34536,0 z"
       sodipodi:ry="74.111214"
       sodipodi:rx="43.67268"
       sodipodi:cy="475.76343"
       sodipodi:cx="631.26874"
       id="path4931"
       style="fill:#ff6600;stroke:none"
       sodipodi:type="arc" />
    <path
       transform="matrix(0.96266665,0.27068973,-0.27068973,0.96266665,20.602291,150.39823)"
       d="m 647.1497,543.91931 a 39.702435,56.245117 0 1 1 -79.40487,0 39.702435,56.245117 0 1 1 79.40487,0 z"
       sodipodi:ry="56.245117"
       sodipodi:rx="39.702435"
       sodipodi:cy="543.91931"
       sodipodi:cx="607.44727"
       id="path4933"
       style="fill:#ff6600;stroke:none"
       sodipodi:type="arc" />
    <path
       transform="matrix(1.2096564,0.4940748,-0.13290656,1.0875654,-250.57306,-58.193032)"
       d="m 651.11998,586.93024 a 17.20439,44.996094 0 1 1 -34.40878,0 17.20439,44.996094 0 1 1 34.40878,0 z"
       sodipodi:ry="44.996094"
       sodipodi:rx="17.20439"
       sodipodi:cy="586.93024"
       sodipodi:cx="633.91559"
       id="path4935"
       style="fill:#ff6600;stroke:none"
       sodipodi:type="arc" />
    <g
       id="g5060"
       transform="matrix(0.86645008,-0.49926371,0.49926371,0.86645008,-439.07798,471.77048)">
      <path
         sodipodi:type="arc"
         style="fill:#ff6600;stroke:none"
         id="path4937"
         sodipodi:cx="648.47314"
         sodipodi:cy="646.48389"
         sodipodi:rx="18.527803"
         sodipodi:ry="47.642921"
         d="m 667.00095,646.48389 c 0,26.31246 -8.29518,47.64292 -18.52781,47.64292 -10.23262,0 -18.5278,-21.33046 -18.5278,-47.64292 0,-26.31246 8.29518,-47.64292 18.5278,-47.64292 10.23263,0 18.52781,21.33046 18.52781,47.64292 z"
         transform="matrix(0.43149038,0.90211754,-0.90211754,0.43149038,811.8497,-23.199489)" />
      <path
         sodipodi:type="arc"
         style="fill:#000000;stroke:none"
         id="path4939"
         sodipodi:cx="631.26874"
         sodipodi:cy="661.70319"
         sodipodi:rx="17.20439"
         sodipodi:ry="7.27878"
         d="m 648.47313,661.70319 c 0,4.01996 -7.70267,7.27878 -17.20439,7.27878 -9.50172,0 -17.20439,-3.25882 -17.20439,-7.27878 0,-4.01996 7.70267,-7.27878 17.20439,-7.27878 9.50172,0 17.20439,3.25882 17.20439,7.27878 z"
         transform="matrix(0.78383005,0.7384943,-0.74808512,0.79400965,467.49172,-136.68698)" />
    </g>
    <path
       inkscape:connector-curvature="0"
       style="fill:#ff6600;stroke:none"
       d="m 442.87833,696.16193 c -3.51494,0.0239 -7.04908,0.10459 -10.625,0.28125 -18.28811,0.90347 -35.64115,3.78464 -51.4375,8.1875 -22.63672,-2.4723 -48.22938,-1.425 -74.78125,3.78125 -79.25545,15.54028 -136.85221,62.13499 -128.625,104.09375 8.22721,41.95876 79.1508,63.38403 158.40625,47.84375 16.48176,-3.23172 32.00866,-7.80833 46.21875,-13.40625 17.73436,3.63125 37.31639,5.17035 57.84375,4.15625 76.28619,-3.7687 136.42225,-41.41934 134.3125,-84.125 -2.01086,-40.70384 -59.84207,-71.29798 -131.3125,-70.8125 z"
       id="path4696" />
    <path
       inkscape:connector-curvature="0"
       style="fill:#b3b3b3;stroke:none"
       d="m 573.09708,759.19318 c -8.58671,37.44499 -64.31552,68.50228 -133.21875,71.90625 -20.52736,1.0141 -40.10939,-0.525 -57.84375,-4.15625 -14.21009,5.59792 -29.73699,10.17453 -46.21875,13.40625 -78.1354,15.32066 -148.15274,-5.30335 -158,-46.09375 -1.40156,6.1093 -1.58739,12.2262 -0.40625,18.25 8.22721,41.95876 79.1508,63.38403 158.40625,47.84375 16.48176,-3.23172 32.00866,-7.80833 46.21875,-13.40625 17.73436,3.63125 37.31639,5.17035 57.84375,4.15625 76.28619,-3.7687 136.42225,-41.41934 134.3125,-84.125 -0.13046,-2.64068 -0.50494,-5.2314 -1.09375,-7.78125 z"
       id="path4780" />
    <path
       sodipodi:type="arc"
       style="fill:#ff6600;stroke:none"
       id="path4709"
       sodipodi:cx="725.23114"
       sodipodi:cy="411.57785"
       sodipodi:rx="75.434631"
       sodipodi:ry="45.657803"
       d="m 800.66577,411.57785 a 75.434631,45.657803 0 1 1 -150.86926,0 75.434631,45.657803 0 1 1 150.86926,0 z"
       transform="matrix(0.98306263,-0.1832699,0.1832699,0.98306263,-221.95607,471.65114)" />
    <g
       id="g5067"
       transform="matrix(0.93357334,0.3583864,-0.3583864,0.93357334,143.43797,-160.99274)">
      <path
         id="path4747"
         d="m 845.40625,626.42468 c -10.97239,-3.38871 -23.39816,-5.5 -36.8125,-5.5 -42.3923,0 -76.75,19.2457 -76.75,43 0,23.7543 34.3577,43.03125 76.75,43.03125 13.92088,0 26.8054,-2.24455 38.0625,-5.875 -2.30045,-1.53435 -4.51515,-3.18494 -6.5,-5.0625 -2.21529,-2.09555 -4.20883,-4.37954 -5.96875,-6.84375 -1.75992,-2.46421 -3.29233,-5.10421 -4.53125,-7.875 -1.23892,-2.77079 -2.19147,-5.67221 -2.84375,-8.6875 -0.32614,-1.50764 -0.58283,-3.03662 -0.75,-4.59375 -0.16717,-1.55713 -0.25,-3.15115 -0.25,-4.75 0,-1.59885 0.0828,-3.16162 0.25,-4.71875 0.16717,-1.55713 0.42386,-3.08611 0.75,-4.59375 0.65228,-3.01529 1.60483,-5.94796 2.84375,-8.71875 1.23892,-2.77079 2.77133,-5.37954 4.53125,-7.84375 1.75992,-2.46421 3.75346,-4.77945 5.96875,-6.875 1.60386,-1.51716 3.43711,-2.79788 5.25,-4.09375 z"
         style="fill:#ff6600;stroke:none"
         inkscape:connector-curvature="0" />
      <path
         id="path4711"
         d="m 845.40625,626.42468 c -1.81289,1.29587 -3.64614,2.57659 -5.25,4.09375 -2.21529,2.09555 -4.20883,4.41079 -5.96875,6.875 -1.75992,2.46421 -3.29233,5.07296 -4.53125,7.84375 -1.23892,2.77079 -2.19147,5.70346 -2.84375,8.71875 -0.32614,1.50764 -0.58283,3.03662 -0.75,4.59375 -0.16717,1.55713 -0.25,3.1199 -0.25,4.71875 0,1.59885 0.0828,3.19287 0.25,4.75 0.16717,1.55713 0.42386,3.08611 0.75,4.59375 0.65228,3.01529 1.60483,5.91671 2.84375,8.6875 1.23892,2.77079 2.77133,5.41079 4.53125,7.875 1.75992,2.46421 3.75346,4.7482 5.96875,6.84375 1.98485,1.87756 4.19955,3.52815 6.5,5.0625 23.02336,-7.42511 38.71875,-21.20244 38.71875,-37.15625 0,-16.23765 -16.26593,-30.17963 -39.96875,-37.5 z"
         style="fill:#b3b3b3;stroke:none"
         inkscape:connector-curvature="0" />
    </g>
    <path
       style="fill:#b3b3b3;stroke:none"
       d="m 178.03458,657.88068 c -6.21566,1.54934 -12.07607,4.39031 -17.40625,8.625 -30.23032,24.01718 -31.57234,83.52591 -2.96875,132.90625 28.60359,49.38034 76.30093,69.92343 106.53125,45.90625 1.29039,-1.02518 2.53379,-2.09906 3.71875,-3.25 -29.03162,7.21477 -65.51076,-13.90351 -89.0625,-54.5625 -27.37174,-47.25371 -27.35613,-103.79845 -0.8125,-129.625 z"
       id="path4794"
       inkscape:connector-curvature="0" />
    <g
       id="g5071"
       transform="matrix(0.90037482,-0.43511513,0.43511513,0.90037482,-349.58787,290.57873)">
      <path
         id="path4704"
         transform="translate(0,252.36218)"
         d="m 271.3125,272.0625 c -14.61232,0 -27.38834,6.69485 -34.28125,16.6875 -5.05929,1.04303 -9.94888,2.32186 -14.65625,3.8125 1.68301,4.82189 2.59375,9.88107 2.59375,15.125 0,27.90058 -25.44906,51.10904 -59.03125,55.96875 10.50254,25.63854 50.84437,40.89944 96.25,34.84375 50.35183,-6.71536 87.85651,-37.11556 83.75,-67.90625 C 343.65068,313.44716 328.9378,299.82 307.65625,292.25 301.51668,280.35717 287.57087,272.0625 271.3125,272.0625 z"
         style="fill:#ff6600;stroke:none"
         inkscape:connector-curvature="0" />
      <g
         id="g4806">
        <path
           style="fill:#ff6600;stroke:none"
           d="m 222.98047,549.46466 -11.91073,-62.20048 c 0,0 43.67268,26.46829 48.96634,54.25999 5.29366,27.79171 -37.05561,7.94049 -37.05561,7.94049 z"
           id="path4717"
           inkscape:connector-curvature="0" />
        <path
           style="fill:#d45500;stroke:none"
           d="m 211.0625,234.90625 3.65625,19.15625 c 8.48287,1.60654 17.84439,10.70716 23.3125,23.6875 3.85919,9.16105 4.98007,18.34815 3.625,25.5 10.57713,2 21.18457,0.65651 18.375,-14.09375 -5.29366,-27.7917 -48.96875,-54.25 -48.96875,-54.25 z"
           transform="translate(0,252.36218)"
           id="path4803"
           inkscape:connector-curvature="0" />
      </g>
      <path
         transform="translate(0,252.36218)"
         d="m 244.83169,340.11346 c 0,4.75087 -3.85134,8.6022 -8.6022,8.6022 -4.75086,0 -8.60219,-3.85133 -8.60219,-8.6022 0,-4.75086 3.85133,-8.60219 8.60219,-8.60219 4.75086,0 8.6022,3.85133 8.6022,8.60219 z"
         sodipodi:ry="8.6021948"
         sodipodi:rx="8.6021948"
         sodipodi:cy="340.11346"
         sodipodi:cx="236.22949"
         id="path4844"
         style="fill:#000000;stroke:none"
         sodipodi:type="arc" />
      <path
         id="path4848"
         transform="translate(0,252.36218)"
         d="m 220.34375,355.34375 c -18.95109,0 -35.18668,10.21498 -42.09375,24.75 17.76703,15.26876 49.37437,23.01589 83.9375,18.40625 1.2594,-0.16796 2.50713,-0.36527 3.75,-0.5625 0.0457,-0.73983 0.0625,-1.50009 0.0625,-2.25 0,-22.2925 -20.44014,-40.34375 -45.65625,-40.34375 z"
         style="fill:#b3b3b3;stroke:none"
         inkscape:connector-curvature="0" />
      <path
         transform="translate(0,252.36218)"
         d="m 189.24827,365.92004 c 0,7.30902 -5.92512,13.23415 -13.23414,13.23415 -7.30902,0 -13.23415,-5.92513 -13.23415,-13.23415 0,-7.30901 5.92513,-13.23414 13.23415,-13.23414 7.30902,0 13.23414,5.92513 13.23414,13.23414 z"
         sodipodi:ry="13.234145"
         sodipodi:rx="13.234145"
         sodipodi:cy="365.92004"
         sodipodi:cx="176.01413"
         id="path4842"
         style="fill:#000000;stroke:none"
         sodipodi:type="arc" />
    </g>
    <path
       sodipodi:type="arc"
       style="fill:#ff6600;stroke:none"
       id="path4892"
       sodipodi:cx="334.82388"
       sodipodi:cy="518.11273"
       sodipodi:rx="29.11512"
       sodipodi:ry="37.055607"
       d="m 363.939,518.11273 a 29.11512,37.055607 0 1 1 -58.23024,0 29.11512,37.055607 0 1 1 58.23024,0 z"
       transform="matrix(0.765317,0.59751096,-0.7184557,1.1032311,357.64891,101.94311)" />
    <path
       sodipodi:type="arc"
       style="fill:#ff6600;stroke:none"
       id="path4894"
       sodipodi:cx="336.80899"
       sodipodi:cy="558.47687"
       sodipodi:rx="20.512926"
       sodipodi:ry="33.74707"
       d="m 357.32192,558.47687 a 20.512926,33.74707 0 1 1 -41.02586,0 20.512926,33.74707 0 1 1 41.02586,0 z"
       transform="matrix(0.81789752,0.52323331,-0.61200947,1.1656508,299.95897,79.730374)" />
    <g
       id="g5038"
       transform="matrix(0.6521863,-0.75805873,0.75805873,0.6521863,-656.13176,647.94951)">
      <path
         transform="matrix(0.96979983,0.04709291,0.04886469,1.3156404,-6.4723723,71.634499)"
         d="m 355.99852,600.16443 c 0,13.15623 -7.40641,23.82146 -16.54268,23.82146 -9.13627,0 -16.54268,-10.66523 -16.54268,-23.82146 0,-13.15623 7.40641,-23.82146 16.54268,-23.82146 9.13627,0 16.54268,10.66523 16.54268,23.82146 z"
         sodipodi:ry="23.821461"
         sodipodi:rx="16.542681"
         sodipodi:cy="600.16443"
         sodipodi:cx="339.45584"
         id="path4896"
         style="fill:#ff6600;stroke:none"
         sodipodi:type="arc" />
      <path
         transform="matrix(0.69713611,0.03180752,0.03512616,0.88861056,97.328947,338.00122)"
         d="m 349.38144,621.33905 c 0,5.11631 -9.77646,9.2639 -21.83634,9.2639 -12.05987,0 -21.83633,-4.14759 -21.83633,-9.2639 0,-5.11631 9.77646,-9.2639 21.83633,-9.2639 12.05988,0 21.83634,4.14759 21.83634,9.2639 z"
         sodipodi:ry="9.2639017"
         sodipodi:rx="21.83634"
         sodipodi:cy="621.33905"
         sodipodi:cx="327.5451"
         id="path4898"
         style="fill:#280b0b;stroke:none"
         sodipodi:type="arc" />
    </g>
    <path
       sodipodi:type="arc"
       style="fill:#ff6600;stroke:none"
       id="path4872"
       sodipodi:cx="389.08386"
       sodipodi:cy="569.72589"
       sodipodi:rx="26.46829"
       sodipodi:ry="47.642921"
       d="m 415.55215,569.72589 a 26.46829,47.642921 0 1 1 -52.93658,0 26.46829,47.642921 0 1 1 52.93658,0 z"
       transform="matrix(0.93081417,-0.52063977,0.48931921,1.2813762,-331.62916,364.2368)" />
    <g
       id="g5030"
       transform="matrix(0.21786927,-0.97597796,0.97597796,0.21786927,-567.38068,1179.7642)">
      <path
         transform="matrix(0.761183,-0.42522869,0.40274927,1.3120562,-102.62063,258.70403)"
         d="m 428.7863,585.60687 c 0,24.11976 -10.66523,43.67268 -23.82146,43.67268 -13.15623,0 -23.82146,-19.55292 -23.82146,-43.67268 0,-24.11975 10.66523,-43.67268 23.82146,-43.67268 13.15623,0 23.82146,19.55293 23.82146,43.67268 z"
         sodipodi:ry="43.67268"
         sodipodi:rx="23.821461"
         sodipodi:cy="585.60687"
         sodipodi:cx="404.96484"
         id="path4874"
         style="fill:#ff6600;stroke:none"
         sodipodi:type="arc" />
      <path
         transform="matrix(0.69906122,-0.28085466,0.28335624,0.95365573,-12.621217,411.6179)"
         d="m 428.78629,637.22003 c 0,5.11631 -11.25774,9.2639 -25.14487,9.2639 -13.88713,0 -25.14488,-4.14759 -25.14488,-9.2639 0,-5.11631 11.25775,-9.2639 25.14488,-9.2639 13.88713,0 25.14487,4.14759 25.14487,9.2639 z"
         sodipodi:ry="9.2639017"
         sodipodi:rx="25.144876"
         sodipodi:cy="637.22003"
         sodipodi:cx="403.64142"
         id="path4876"
         style="fill:#280b0b;stroke:none"
         sodipodi:type="arc" />
    </g>
    <g
       id="g4981"
       transform="matrix(0.90488523,-0.42565563,0.42565563,0.90488523,-362.71462,314.67675)">
      <path
         inkscape:connector-curvature="0"
         id="path4867"
         d="m 286.05278,724.96536 c 3.45133,5.44672 7.36885,10.83019 11.77152,16.01632 33.12778,39.02294 80.2857,53.40063 105.35947,32.11472 25.07379,-21.28592 18.56444,-70.17144 -14.56335,-109.19438 -4.40266,-5.18613 -9.07881,-9.92558 -13.89303,-14.21528 l -88.67461,75.27862 z"
         style="fill:#ff6600;stroke:none" />
      <path
         id="path4883"
         d="m 302.84375,710.70593 -16.78125,14.25 c 3.45133,5.44672 7.34733,10.84512 11.75,16.03125 8.7743,10.3357 18.55324,18.9206 28.625,25.59375 0.80221,-8.85661 -0.73803,-19.25131 -4.875,-29.59375 -4.51508,-11.28771 -11.30163,-20.43588 -18.71875,-26.28125 z"
         style="fill:#b3b3b3;stroke:none"
         inkscape:connector-curvature="0" />
    </g>
    <g
       id="g4995"
       transform="translate(-101.90292,104.54975)">
      <g
         id="g5042"
         transform="matrix(0.93213932,0.36209984,-0.36209984,0.93213932,277.6788,-171.28435)">
        <g
           id="g4923">
          <path
             transform="matrix(1.1047333,0.26565991,-0.29293348,1.0018771,57.371211,59.944885)"
             d="m 674.94142,475.76343 c 0,40.93049 -19.55293,74.11121 -43.67268,74.11121 -24.11976,0 -43.67268,-33.18072 -43.67268,-74.11121 0,-40.9305 19.55292,-74.11122 43.67268,-74.11122 24.11975,0 43.67268,33.18072 43.67268,74.11122 z"
             sodipodi:ry="74.111214"
             sodipodi:rx="43.67268"
             sodipodi:cy="475.76343"
             sodipodi:cx="631.26874"
             id="path4913"
             style="fill:#ff6600;stroke:none"
             sodipodi:type="arc" />
          <path
             transform="matrix(0.88629342,-0.46312414,0.46312414,0.88629342,-176.21434,557.15385)"
             d="m 647.1497,543.91931 c 0,31.06332 -17.77539,56.24512 -39.70243,56.24512 -21.92705,0 -39.70244,-25.1818 -39.70244,-56.24512 0,-31.06332 17.77539,-56.24512 39.70244,-56.24512 21.92704,0 39.70243,25.1818 39.70243,56.24512 z"
             sodipodi:ry="56.245117"
             sodipodi:rx="39.702435"
             sodipodi:cy="543.91931"
             sodipodi:cx="607.44727"
             id="path4915"
             style="fill:#ff6600;stroke:none"
             sodipodi:type="arc" />
          <path
             transform="matrix(1.2192481,-0.46990697,0.64905722,0.88271595,-516.62754,591.28939)"
             d="m 651.11998,586.93024 c 0,24.85065 -7.70267,44.99609 -17.20439,44.99609 -9.50172,0 -17.20439,-20.14544 -17.20439,-44.99609 0,-24.85066 7.70267,-44.9961 17.20439,-44.9961 9.50172,0 17.20439,20.14544 17.20439,44.9961 z"
             sodipodi:ry="44.996094"
             sodipodi:rx="17.20439"
             sodipodi:cy="586.93024"
             sodipodi:cx="633.91559"
             id="path4917"
             style="fill:#ff6600;stroke:none"
             sodipodi:type="arc" />
          <path
             transform="matrix(0.9326792,0.36070695,-0.36070695,0.9326792,278.17037,34.183506)"
             d="m 667.00095,646.48389 c 0,26.31246 -8.29518,47.64292 -18.52781,47.64292 -10.23262,0 -18.5278,-21.33046 -18.5278,-47.64292 0,-26.31246 8.29518,-47.64292 18.5278,-47.64292 10.23263,0 18.52781,21.33046 18.52781,47.64292 z"
             sodipodi:ry="47.642921"
             sodipodi:rx="18.527803"
             sodipodi:cy="646.48389"
             sodipodi:cx="648.47314"
             id="path4919"
             style="fill:#ff6600;stroke:none"
             sodipodi:type="arc" />
        </g>
        <path
           sodipodi:type="arc"
           style="fill:#000000;stroke:none"
           id="path4921"
           sodipodi:cx="631.26874"
           sodipodi:cy="661.70319"
           sodipodi:rx="17.20439"
           sodipodi:ry="7.27878"
           d="m 648.47313,661.70319 c 0,4.01996 -7.70267,7.27878 -17.20439,7.27878 -9.50172,0 -17.20439,-3.25882 -17.20439,-7.27878 0,-4.01996 7.70267,-7.27878 17.20439,-7.27878 9.50172,0 17.20439,3.25882 17.20439,7.27878 z"
           transform="matrix(1.1923077,0,0,1.3636364,-124.70637,9.0960129)" />
      </g>
    </g>
  </g>
</svg>
