<?xml version="1.0" encoding="UTF-8" standalone="no"?>
<!-- Created with Inkscape (http://www.inkscape.org/) -->

<svg
   xmlns:dc="http://purl.org/dc/elements/1.1/"
   xmlns:cc="http://creativecommons.org/ns#"
   xmlns:rdf="http://www.w3.org/1999/02/22-rdf-syntax-ns#"
   xmlns:svg="http://www.w3.org/2000/svg"
   xmlns="http://www.w3.org/2000/svg"
   xmlns:sodipodi="http://sodipodi.sourceforge.net/DTD/sodipodi-0.dtd"
   xmlns:inkscape="http://www.inkscape.org/namespaces/inkscape"
   width="800"
   height="450"
   id="svg4674"
   version="1.1"
   inkscape:version="0.48.2 r9819"
   sodipodi:docname="fox_standing.svg"
   inkscape:export-filename="/Users/jamiely/Documents/code/BunnyMatcher/BunnyMatcher/Assets/inkscape/fox_standing.png"
   inkscape:export-xdpi="90"
   inkscape:export-ydpi="90">
  <defs
     id="defs4676" />
  <sodipodi:namedview
     id="base"
     pagecolor="#ffffff"
     bordercolor="#666666"
     borderopacity="1.0"
     inkscape:pageopacity="0.0"
     inkscape:pageshadow="2"
     inkscape:zoom="0.75562114"
     inkscape:cx="540.88332"
     inkscape:cy="204.15786"
     inkscape:document-units="px"
     inkscape:current-layer="layer1"
     showgrid="false"
     inkscape:window-width="1440"
     inkscape:window-height="852"
     inkscape:window-x="0"
     inkscape:window-y="0"
     inkscape:window-maximized="1" />
  <metadata
     id="metadata4679">
    <rdf:RDF>
      <cc:Work
         rdf:about="">
        <dc:format>image/svg+xml</dc:format>
        <dc:type
           rdf:resource="http://purl.org/dc/dcmitype/StillImage" />
        <dc:title></dc:title>
      </cc:Work>
    </rdf:RDF>
  </metadata>
  <g
     inkscape:label="Layer 1"
     inkscape:groupmode="layer"
     id="layer1"
     transform="translate(0,-602.36218)">
    <path
       sodipodi:type="arc"
       style="fill:#ff6600;stroke:none"
       id="path4694"
       sodipodi:cx="327.5451"
       sodipodi:cy="381.13931"
       sodipodi:rx="85.360237"
       sodipodi:ry="107.85828"
       d="m 412.90534,381.13931 a 85.360237,107.85828 0 1 1 -170.72047,0 85.360237,107.85828 0 1 1 170.72047,0 z"
       transform="matrix(0.64124516,-0.50945205,0.48017994,0.82896763,-212.40608,621.39127)" />
    <g
       id="g4929"
       transform="translate(-167.66487,99.107308)">
      <path
         sodipodi:type="arc"
         style="fill:#ff6600;stroke:none"
         id="path4931"
         sodipodi:cx="631.26874"
         sodipodi:cy="475.76343"
         sodipodi:rx="43.67268"
         sodipodi:ry="74.111214"
         d="m 674.94142,475.76343 c 0,40.93049 -19.55293,74.11121 -43.67268,74.11121 -24.11976,0 -43.67268,-33.18072 -43.67268,-74.11121 0,-40.9305 19.55292,-74.11122 43.67268,-74.11122 24.11975,0 43.67268,33.18072 43.67268,74.11122 z"
         transform="matrix(1.1047333,0.26565991,-0.29293348,1.0018771,57.371211,59.944885)" />
      <path
         sodipodi:type="arc"
         style="fill:#ff6600;stroke:none"
         id="path4933"
         sodipodi:cx="607.44727"
         sodipodi:cy="543.91931"
         sodipodi:rx="39.702435"
         sodipodi:ry="56.245117"
         d="m 647.1497,543.91931 c 0,31.06332 -17.77539,56.24512 -39.70243,56.24512 -21.92705,0 -39.70244,-25.1818 -39.70244,-56.24512 0,-31.06332 17.77539,-56.24512 39.70244,-56.24512 21.92704,0 39.70243,25.1818 39.70243,56.24512 z"
         transform="matrix(0.88629342,-0.46312414,0.46312414,0.88629342,-176.21434,557.15385)" />
      <path
         sodipodi:type="arc"
         style="fill:#ff6600;stroke:none"
         id="path4935"
         sodipodi:cx="633.91559"
         sodipodi:cy="586.93024"
         sodipodi:rx="17.20439"
         sodipodi:ry="44.996094"
         d="m 651.11998,586.93024 c 0,24.85065 -7.70267,44.99609 -17.20439,44.99609 -9.50172,0 -17.20439,-20.14544 -17.20439,-44.99609 0,-24.85066 7.70267,-44.9961 17.20439,-44.9961 9.50172,0 17.20439,20.14544 17.20439,44.9961 z"
         transform="matrix(1.2192481,-0.46990697,0.64905722,0.88271595,-516.62754,591.28939)" />
      <path
         sodipodi:type="arc"
         style="fill:#ff6600;stroke:none"
         id="path4937"
         sodipodi:cx="648.47314"
         sodipodi:cy="646.48389"
         sodipodi:rx="18.527803"
         sodipodi:ry="47.642921"
         d="m 667.00095,646.48389 c 0,26.31246 -8.29518,47.64292 -18.52781,47.64292 -10.23262,0 -18.5278,-21.33046 -18.5278,-47.64292 0,-26.31246 8.29518,-47.64292 18.5278,-47.64292 10.23263,0 18.52781,21.33046 18.52781,47.64292 z"
         transform="matrix(0.9326792,0.36070695,-0.36070695,0.9326792,278.17037,34.183506)" />
    </g>
    <path
       inkscape:connector-curvature="0"
       style="fill:#ff6600;stroke:none"
       d="m 411.11638,710.71949 c -3.51494,0.0239 -7.04908,0.10459 -10.625,0.28125 -18.28811,0.90347 -35.64115,3.78464 -51.4375,8.1875 -22.63672,-2.4723 -48.22938,-1.425 -74.78125,3.78125 -79.25545,15.54028 -136.85221,62.13499 -128.625,104.09375 8.22721,41.95876 79.1508,63.38403 158.40625,47.84375 16.48176,-3.23172 32.00866,-7.80833 46.21875,-13.40625 17.73436,3.63125 37.31639,5.17035 57.84375,4.15625 76.28619,-3.7687 136.42225,-41.41934 134.3125,-84.125 -2.01086,-40.70384 -59.84207,-71.29798 -131.3125,-70.8125 z"
       id="path4696" />
    <path
       inkscape:connector-curvature="0"
       style="fill:#b3b3b3;stroke:none"
       d="m 541.33513,773.75074 c -8.58671,37.44499 -64.31552,68.50228 -133.21875,71.90625 -20.52736,1.0141 -40.10939,-0.525 -57.84375,-4.15625 -14.21009,5.59792 -29.73699,10.17453 -46.21875,13.40625 -78.1354,15.32066 -148.15274,-5.30335 -158,-46.09375 -1.40156,6.1093 -1.58739,12.2262 -0.40625,18.25 8.22721,41.95876 79.1508,63.38403 158.40625,47.84375 16.48176,-3.23172 32.00866,-7.80833 46.21875,-13.40625 17.73436,3.63125 37.31639,5.17035 57.84375,4.15625 76.28619,-3.7687 136.42225,-41.41934 134.3125,-84.125 -0.13046,-2.64068 -0.50494,-5.2314 -1.09375,-7.78125 z"
       id="path4780" />
    <g
       id="g5268"
       transform="matrix(0.64373977,0.76524448,-0.76524448,0.64373977,585.21723,-145.86752)">
      <path
         transform="matrix(0.9876117,0.15691757,-0.15691757,0.9876117,56.363785,133.0721)"
         d="m 800.66577,411.57785 c 0,25.21611 -33.77323,45.6578 -75.43463,45.6578 -41.6614,0 -75.43463,-20.44169 -75.43463,-45.6578 0,-25.21611 33.77323,-45.6578 75.43463,-45.6578 41.6614,0 75.43463,20.44169 75.43463,45.6578 z"
         sodipodi:ry="45.657803"
         sodipodi:rx="75.434631"
         sodipodi:cy="411.57785"
         sodipodi:cx="725.23114"
         id="path4709"
         style="fill:#ff6600;stroke:none"
         sodipodi:type="arc" />
      <path
         id="path4747"
         d="m 845.40625,626.42468 c -10.97239,-3.38871 -23.39816,-5.5 -36.8125,-5.5 -42.3923,0 -76.75,19.2457 -76.75,43 0,23.7543 34.3577,43.03125 76.75,43.03125 13.92088,0 26.8054,-2.24455 38.0625,-5.875 -2.30045,-1.53435 -4.51515,-3.18494 -6.5,-5.0625 -2.21529,-2.09555 -4.20883,-4.37954 -5.96875,-6.84375 -1.75992,-2.46421 -3.29233,-5.10421 -4.53125,-7.875 -1.23892,-2.77079 -2.19147,-5.67221 -2.84375,-8.6875 -0.32614,-1.50764 -0.58283,-3.03662 -0.75,-4.59375 -0.16717,-1.55713 -0.25,-3.15115 -0.25,-4.75 0,-1.59885 0.0828,-3.16162 0.25,-4.71875 0.16717,-1.55713 0.42386,-3.08611 0.75,-4.59375 0.65228,-3.01529 1.60483,-5.94796 2.84375,-8.71875 1.23892,-2.77079 2.77133,-5.37954 4.53125,-7.84375 1.75992,-2.46421 3.75346,-4.77945 5.96875,-6.875 1.60386,-1.51716 3.43711,-2.79788 5.25,-4.09375 z"
         style="fill:#ff6600;stroke:none"
         inkscape:connector-curvature="0" />
      <path
         id="path4711"
         d="m 845.40625,626.42468 c -1.81289,1.29587 -3.64614,2.57659 -5.25,4.09375 -2.21529,2.09555 -4.20883,4.41079 -5.96875,6.875 -1.75992,2.46421 -3.29233,5.07296 -4.53125,7.84375 -1.23892,2.77079 -2.19147,5.70346 -2.84375,8.71875 -0.32614,1.50764 -0.58283,3.03662 -0.75,4.59375 -0.16717,1.55713 -0.25,3.1199 -0.25,4.71875 0,1.59885 0.0828,3.19287 0.25,4.75 0.16717,1.55713 0.42386,3.08611 0.75,4.59375 0.65228,3.01529 1.60483,5.91671 2.84375,8.6875 1.23892,2.77079 2.77133,5.41079 4.53125,7.875 1.75992,2.46421 3.75346,4.7482 5.96875,6.84375 1.98485,1.87756 4.19955,3.52815 6.5,5.0625 23.02336,-7.42511 38.71875,-21.20244 38.71875,-37.15625 0,-16.23765 -16.26593,-30.17963 -39.96875,-37.5 z"
         style="fill:#b3b3b3;stroke:none"
         inkscape:connector-curvature="0" />
    </g>
    <path
       style="fill:#b3b3b3;stroke:none"
       d="m 146.27263,672.43824 c -6.21566,1.54934 -12.07607,4.39031 -17.40625,8.625 -30.230318,24.01718 -31.572338,83.52591 -2.96875,132.90625 28.60359,49.38034 76.30093,69.92343 106.53125,45.90625 1.29039,-1.02518 2.53379,-2.09906 3.71875,-3.25 -29.03162,7.21477 -65.51076,-13.90351 -89.0625,-54.5625 -27.37174,-47.25371 -27.35613,-103.79845 -0.8125,-129.625 z"
       id="path4794"
       inkscape:connector-curvature="0" />
    <path
       style="fill:#ff6600;stroke:none"
       d="m 137.64763,643.53199 c -14.61232,0 -27.38834,6.69485 -34.28125,16.6875 -5.059288,1.04303 -9.948878,2.32186 -14.656248,3.8125 1.68301,4.82189 2.59375,9.88107 2.59375,15.125 0,27.90058 -25.44906,51.10904 -59.03125,55.96875 10.50254,25.63854 50.84437,40.89944 96.249998,34.84375 50.35183,-6.71536 87.85651,-37.11556 83.75,-67.90625 -2.28682,-17.14659 -16.9997,-30.77375 -38.28125,-38.34375 -6.13957,-11.89283 -20.08538,-20.1875 -36.34375,-20.1875 z"
       id="path4704"
       inkscape:connector-curvature="0" />
    <g
       id="g4806"
       transform="translate(-133.66487,119.10731)">
      <path
         inkscape:connector-curvature="0"
         id="path4717"
         d="m 222.98047,549.46466 -11.91073,-62.20048 c 0,0 43.67268,26.46829 48.96634,54.25999 5.29366,27.79171 -37.05561,7.94049 -37.05561,7.94049 z"
         style="fill:#ff6600;stroke:none" />
      <path
         id="path4803"
         transform="translate(0,252.36218)"
         d="m 211.0625,234.90625 3.65625,19.15625 c 8.48287,1.60654 17.84439,10.70716 23.3125,23.6875 3.85919,9.16105 4.98007,18.34815 3.625,25.5 10.57713,2 21.18457,0.65651 18.375,-14.09375 -5.29366,-27.7917 -48.96875,-54.25 -48.96875,-54.25 z"
         style="fill:#d45500;stroke:none"
         inkscape:connector-curvature="0" />
    </g>
    <path
       sodipodi:type="arc"
       style="fill:#000000;stroke:none"
       id="path4844"
       sodipodi:cx="236.22949"
       sodipodi:cy="340.11346"
       sodipodi:rx="8.6021948"
       sodipodi:ry="8.6021948"
       d="m 244.83169,340.11346 a 8.6021948,8.6021948 0 1 1 -17.20439,0 8.6021948,8.6021948 0 1 1 17.20439,0 z"
       transform="translate(-133.66487,371.46949)" />
    <path
       style="fill:#b3b3b3;stroke:none"
       d="m 86.678882,726.81324 c -18.95109,0 -35.18668,10.21498 -42.09375,24.75 17.76703,15.26876 49.37437,23.01589 83.937498,18.40625 1.2594,-0.16796 2.50713,-0.36527 3.75,-0.5625 0.0457,-0.73983 0.0625,-1.50009 0.0625,-2.25 0,-22.2925 -20.44014,-40.34375 -45.656248,-40.34375 z"
       id="path4848"
       inkscape:connector-curvature="0" />
    <path
       sodipodi:type="arc"
       style="fill:#000000;stroke:none"
       id="path4842"
       sodipodi:cx="176.01413"
       sodipodi:cy="365.92004"
       sodipodi:rx="13.234145"
       sodipodi:ry="13.234145"
       d="m 189.24827,365.92004 a 13.234145,13.234145 0 1 1 -26.46829,0 13.234145,13.234145 0 1 1 26.46829,0 z"
       transform="translate(-133.66487,371.46949)" />
    <path
       sodipodi:type="arc"
       style="fill:#ff6600;stroke:none"
       id="path4872"
       sodipodi:cx="389.08386"
       sodipodi:cy="569.72589"
       sodipodi:rx="26.46829"
       sodipodi:ry="47.642921"
       d="m 415.55215,569.72589 a 26.46829,47.642921 0 1 1 -52.93658,0 26.46829,47.642921 0 1 1 52.93658,0 z"
       transform="matrix(0.99636986,-0.38043121,0.2987001,1.338707,-287.62067,305.19464)" />
    <path
       sodipodi:type="arc"
       style="fill:#ff6600;stroke:none"
       id="path4874"
       sodipodi:cx="404.96484"
       sodipodi:cy="585.60687"
       sodipodi:rx="23.821461"
       sodipodi:ry="43.67268"
       d="m 428.7863,585.60687 a 23.821461,43.67268 0 1 1 -47.64292,0 23.821461,43.67268 0 1 1 47.64292,0 z"
       transform="matrix(0.81471515,-0.31057726,0.20860114,1.3565338,-161.71123,322.61924)" />
    <path
       sodipodi:type="arc"
       style="fill:#280b0b;stroke:none"
       id="path4876"
       sodipodi:cx="403.64142"
       sodipodi:cy="637.22003"
       sodipodi:rx="25.144876"
       sodipodi:ry="9.2639017"
       d="m 428.78629,637.22003 a 25.144876,9.2639017 0 1 1 -50.28975,0 25.144876,9.2639017 0 1 1 50.28975,0 z"
       transform="matrix(0.73235083,-0.17671503,0.14234025,0.98462647,-94.792296,486.94941)" />
    <path
       sodipodi:type="arc"
       style="fill:#ff6600;stroke:none"
       id="path4892"
       sodipodi:cx="334.82388"
       sodipodi:cy="518.11273"
       sodipodi:rx="29.11512"
       sodipodi:ry="37.055607"
       d="m 363.939,518.11273 a 29.11512,37.055607 0 1 1 -58.23024,0 29.11512,37.055607 0 1 1 58.23024,0 z"
       transform="matrix(0.96979983,0.04709291,0.04886469,1.3156404,-140.13724,190.74181)" />
    <path
       sodipodi:type="arc"
       style="fill:#ff6600;stroke:none"
       id="path4894"
       sodipodi:cx="336.80899"
       sodipodi:cy="558.47687"
       sodipodi:rx="20.512926"
       sodipodi:ry="33.74707"
       d="m 357.32192,558.47687 a 20.512926,33.74707 0 1 1 -41.02586,0 20.512926,33.74707 0 1 1 41.02586,0 z"
       transform="matrix(0.96979983,0.04709291,0.04886469,1.3156404,-140.13724,190.74181)" />
    <path
       sodipodi:type="arc"
       style="fill:#ff6600;stroke:none"
       id="path4896"
       sodipodi:cx="339.45584"
       sodipodi:cy="600.16443"
       sodipodi:rx="16.542681"
       sodipodi:ry="23.821461"
       d="m 355.99852,600.16443 a 16.542681,23.821461 0 1 1 -33.08536,0 16.542681,23.821461 0 1 1 33.08536,0 z"
       transform="matrix(0.96979983,0.04709291,0.04886469,1.3156404,-140.13724,190.74181)" />
    <path
       sodipodi:type="arc"
       style="fill:#280b0b;stroke:none"
       id="path4898"
       sodipodi:cx="327.5451"
       sodipodi:cy="621.33905"
       sodipodi:rx="21.83634"
       sodipodi:ry="9.2639017"
       d="m 349.38144,621.33905 a 21.83634,9.2639017 0 1 1 -43.67267,0 21.83634,9.2639017 0 1 1 43.67267,0 z"
       transform="matrix(0.69713611,0.03180752,0.03512616,0.88861056,-36.335921,457.10853)" />
    <path
       style="fill:#ff6600;stroke:none"
       d="m 152.38791,844.07267 c 3.45133,5.44672 7.36885,10.83019 11.77152,16.01632 33.12778,39.02294 80.2857,53.40063 105.35947,32.11472 25.07379,-21.28592 18.56444,-70.17144 -14.56335,-109.19438 -4.40266,-5.18613 -9.07881,-9.92558 -13.89303,-14.21528 l -88.67461,75.27862 z"
       id="path4867"
       inkscape:connector-curvature="0" />
    <path
       inkscape:connector-curvature="0"
       style="fill:#b3b3b3;stroke:none"
       d="m 169.17888,829.81324 -16.78125,14.25 c 3.45133,5.44672 7.34733,10.84512 11.75,16.03125 8.7743,10.3357 18.55324,18.9206 28.625,25.59375 0.80221,-8.85661 -0.73803,-19.25131 -4.875,-29.59375 -4.51508,-11.28771 -11.30163,-20.43588 -18.71875,-26.28125 z"
       id="path4883" />
    <g
       id="g4923"
       transform="translate(-133.66487,119.10731)">
      <path
         transform="matrix(1.1047333,0.26565991,-0.29293348,1.0018771,57.371211,59.944885)"
         d="m 674.94142,475.76343 c 0,40.93049 -19.55293,74.11121 -43.67268,74.11121 -24.11976,0 -43.67268,-33.18072 -43.67268,-74.11121 0,-40.9305 19.55292,-74.11122 43.67268,-74.11122 24.11975,0 43.67268,33.18072 43.67268,74.11122 z"
         sodipodi:ry="74.111214"
         sodipodi:rx="43.67268"
         sodipodi:cy="475.76343"
         sodipodi:cx="631.26874"
         id="path4913"
         style="fill:#ff6600;stroke:none"
         sodipodi:type="arc" />
      <path
         transform="matrix(0.88629342,-0.46312414,0.46312414,0.88629342,-176.21434,557.15385)"
         d="m 647.1497,543.91931 c 0,31.06332 -17.77539,56.24512 -39.70243,56.24512 -21.92705,0 -39.70244,-25.1818 -39.70244,-56.24512 0,-31.06332 17.77539,-56.24512 39.70244,-56.24512 21.92704,0 39.70243,25.1818 39.70243,56.24512 z"
         sodipodi:ry="56.245117"
         sodipodi:rx="39.702435"
         sodipodi:cy="543.91931"
         sodipodi:cx="607.44727"
         id="path4915"
         style="fill:#ff6600;stroke:none"
         sodipodi:type="arc" />
      <path
         transform="matrix(1.2192481,-0.46990697,0.64905722,0.88271595,-516.62754,591.28939)"
         d="m 651.11998,586.93024 c 0,24.85065 -7.70267,44.99609 -17.20439,44.99609 -9.50172,0 -17.20439,-20.14544 -17.20439,-44.99609 0,-24.85066 7.70267,-44.9961 17.20439,-44.9961 9.50172,0 17.20439,20.14544 17.20439,44.9961 z"
         sodipodi:ry="44.996094"
         sodipodi:rx="17.20439"
         sodipodi:cy="586.93024"
         sodipodi:cx="633.91559"
         id="path4917"
         style="fill:#ff6600;stroke:none"
         sodipodi:type="arc" />
      <path
         transform="matrix(0.9326792,0.36070695,-0.36070695,0.9326792,278.17037,34.183506)"
         d="m 667.00095,646.48389 c 0,26.31246 -8.29518,47.64292 -18.52781,47.64292 -10.23262,0 -18.5278,-21.33046 -18.5278,-47.64292 0,-26.31246 8.29518,-47.64292 18.5278,-47.64292 10.23263,0 18.52781,21.33046 18.52781,47.64292 z"
         sodipodi:ry="47.642921"
         sodipodi:rx="18.527803"
         sodipodi:cy="646.48389"
         sodipodi:cx="648.47314"
         id="path4919"
         style="fill:#ff6600;stroke:none"
         sodipodi:type="arc" />
    </g>
    <path
       sodipodi:type="arc"
       style="fill:#000000;stroke:none"
       id="path4921"
       sodipodi:cx="631.26874"
       sodipodi:cy="661.70319"
       sodipodi:rx="17.20439"
       sodipodi:ry="7.27878"
       d="m 648.47313,661.70319 a 17.20439,7.27878 0 1 1 -34.40878,0 17.20439,7.27878 0 1 1 34.40878,0 z"
       transform="matrix(1.1923077,0,0,1.3636364,-258.37124,128.20332)" />
    <path
       transform="matrix(1.0769231,0,0,1.0909091,-217.9562,286.83149)"
       d="m 648.47313,661.70319 a 17.20439,7.27878 0 1 1 -34.40878,0 17.20439,7.27878 0 1 1 34.40878,0 z"
       sodipodi:ry="7.27878"
       sodipodi:rx="17.20439"
       sodipodi:cy="661.70319"
       sodipodi:cx="631.26874"
       id="path4939"
       style="fill:#000000;stroke:none"
       sodipodi:type="arc" />
  </g>
</svg>
